%TF.GenerationSoftware,KiCad,Pcbnew,9.0.2*%
%TF.CreationDate,2025-10-13T23:26:23-04:00*%
%TF.ProjectId,PiHat,50694861-742e-46b6-9963-61645f706362,rev?*%
%TF.SameCoordinates,Original*%
%TF.FileFunction,Soldermask,Bot*%
%TF.FilePolarity,Negative*%
%FSLAX46Y46*%
G04 Gerber Fmt 4.6, Leading zero omitted, Abs format (unit mm)*
G04 Created by KiCad (PCBNEW 9.0.2) date 2025-10-13 23:26:23*
%MOMM*%
%LPD*%
G01*
G04 APERTURE LIST*
%ADD10O,1.900000X1.700000*%
%ADD11O,2.300000X2.000000*%
%ADD12O,2.100000X2.000000*%
%ADD13R,1.500000X1.500000*%
%ADD14O,2.000000X2.540000*%
%ADD15R,2.000000X2.000000*%
%ADD16C,2.500000*%
%ADD17O,2.500000X2.000000*%
%ADD18O,2.500000X3.000000*%
%ADD19O,3.000000X4.000000*%
%ADD20O,2.000000X2.500000*%
G04 APERTURE END LIST*
D10*
%TO.C,U1*%
X171375000Y-135348000D03*
X168835000Y-135348000D03*
X171375000Y-132808000D03*
D11*
X168735000Y-132808000D03*
D10*
X171375000Y-130268000D03*
D11*
X168735000Y-130268000D03*
D10*
X171375000Y-127728000D03*
D11*
X168735000Y-127728000D03*
D10*
X171375000Y-125188000D03*
X168835000Y-125188000D03*
X171375000Y-122648000D03*
D11*
X168735000Y-122648000D03*
D10*
X171375000Y-120108000D03*
X168835000Y-120108000D03*
X171375000Y-117568000D03*
D11*
X168735000Y-117568000D03*
D10*
X171375000Y-115028000D03*
D11*
X168735000Y-115028000D03*
D10*
X171375000Y-112488000D03*
D11*
X168735000Y-112488000D03*
D10*
X171375000Y-109948000D03*
X168835000Y-109948000D03*
X171375000Y-107408000D03*
X168835000Y-107408000D03*
X171375000Y-104868000D03*
X168835000Y-104868000D03*
X171375000Y-102328000D03*
X168835000Y-102328000D03*
X171375000Y-99788000D03*
X168835000Y-99788000D03*
X171375000Y-97248000D03*
X168835000Y-97248000D03*
X171375000Y-94708000D03*
X168835000Y-94708000D03*
X171375000Y-92168000D03*
D11*
X168735000Y-92168000D03*
D12*
X171475000Y-89628000D03*
X168735000Y-89628000D03*
D11*
X171475000Y-87088000D03*
D13*
X168835000Y-87088000D03*
%TD*%
D14*
%TO.C,C1*%
X161296000Y-80578000D03*
X161296000Y-88078000D03*
%TD*%
D15*
%TO.C,BZ1*%
X150702000Y-131318000D03*
D16*
X143102000Y-131318000D03*
%TD*%
D17*
%TO.C,U2*%
X137768000Y-130885000D03*
X137768000Y-95885000D03*
X129268000Y-130885000D03*
X129268000Y-95885000D03*
%TD*%
D18*
%TO.C,U6*%
X156535000Y-120374000D03*
D17*
X162460200Y-120513200D03*
X162460200Y-117973200D03*
X162460200Y-115433200D03*
X162460200Y-112893200D03*
D18*
X153035000Y-120374000D03*
X149535000Y-120374000D03*
%TD*%
D19*
%TO.C,U3*%
X173875000Y-79448000D03*
X166875000Y-79448000D03*
%TD*%
D20*
%TO.C,U4*%
X157707000Y-126365000D03*
X160247000Y-126365000D03*
X162787000Y-126365000D03*
%TD*%
%TO.C,U5*%
X156183000Y-135382000D03*
X158723000Y-135382000D03*
X161263000Y-135382000D03*
X163803000Y-135382000D03*
%TD*%
M02*
