M48
; DRILL file {KiCad 9.0.5} date 2025-10-22T00:32:05-0400
; FORMAT={-:-/ absolute / metric / decimal}
; #@! TF.CreationDate,2025-10-22T00:32:05-04:00
; #@! TF.GenerationSoftware,Kicad,Pcbnew,9.0.5
; #@! TF.FileFunction,MixedPlating,1,2
FMAT,2
METRIC
; #@! TA.AperFunction,Plated,PTH,ViaDrill
T1C1.000
; #@! TA.AperFunction,Plated,PTH,ComponentDrill
T2C1.000
; #@! TA.AperFunction,Plated,PTH,ComponentDrill
T3C1.200
; #@! TA.AperFunction,Plated,PTH,ComponentDrill
T4C3.000
%
G90
G05
T1
X132.06Y-92.67
X132.22Y-88.06
X133.4Y-128.49
X152.801Y-126.639
X156.02Y-130.76
X158.73Y-132.61
X164.99Y-131.64
X166.21Y-107.4
X166.93Y-133.97
X168.0Y-119.0
X169.0Y-111.5
X178.043Y-99.85
T2
X142.7Y-131.5
X149.535Y-120.374
X150.3Y-131.5
X153.035Y-120.374
X156.183Y-135.382
X156.5Y-81.0
X156.5Y-86.5
X156.535Y-120.374
X157.707Y-126.365
X158.723Y-135.382
X160.247Y-126.365
X161.263Y-135.382
X162.787Y-126.365
X163.803Y-135.382
X172.46Y-87.14
X172.46Y-89.68
X172.46Y-92.22
X172.46Y-94.76
X172.46Y-97.3
X172.46Y-99.84
X172.46Y-102.38
X172.46Y-104.92
X172.46Y-107.46
X172.46Y-110.0
X172.46Y-112.54
X172.46Y-115.08
X172.46Y-117.62
X172.46Y-120.16
X172.46Y-122.7
X172.46Y-125.24
X172.46Y-127.78
X172.46Y-130.32
X172.46Y-132.86
X172.46Y-135.4
X175.0Y-87.14
X175.0Y-89.68
X175.0Y-92.22
X175.0Y-94.76
X175.0Y-97.3
X175.0Y-99.84
X175.0Y-102.38
X175.0Y-104.92
X175.0Y-107.46
X175.0Y-110.0
X175.0Y-112.54
X175.0Y-115.08
X175.0Y-117.62
X175.0Y-120.16
X175.0Y-122.7
X175.0Y-125.24
X175.0Y-127.78
X175.0Y-130.32
X175.0Y-132.86
X175.0Y-135.4
T3
X162.46Y-112.893
X162.46Y-115.433
X162.46Y-117.973
X162.46Y-120.513
T4
X166.875Y-79.448
X173.875Y-79.448
M30
