%TF.GenerationSoftware,KiCad,Pcbnew,9.0.2*%
%TF.CreationDate,2025-10-13T23:26:23-04:00*%
%TF.ProjectId,PiHat,50694861-742e-46b6-9963-61645f706362,rev?*%
%TF.SameCoordinates,Original*%
%TF.FileFunction,Legend,Top*%
%TF.FilePolarity,Positive*%
%FSLAX46Y46*%
G04 Gerber Fmt 4.6, Leading zero omitted, Abs format (unit mm)*
G04 Created by KiCad (PCBNEW 9.0.2) date 2025-10-13 23:26:23*
%MOMM*%
%LPD*%
G01*
G04 APERTURE LIST*
%ADD10C,0.100000*%
%ADD11C,0.150000*%
%ADD12C,0.120000*%
G04 APERTURE END LIST*
D10*
X170613095Y-137345419D02*
X170613095Y-138154942D01*
X170613095Y-138154942D02*
X170660714Y-138250180D01*
X170660714Y-138250180D02*
X170708333Y-138297800D01*
X170708333Y-138297800D02*
X170803571Y-138345419D01*
X170803571Y-138345419D02*
X170994047Y-138345419D01*
X170994047Y-138345419D02*
X171089285Y-138297800D01*
X171089285Y-138297800D02*
X171136904Y-138250180D01*
X171136904Y-138250180D02*
X171184523Y-138154942D01*
X171184523Y-138154942D02*
X171184523Y-137345419D01*
X172184523Y-138345419D02*
X171613095Y-138345419D01*
X171898809Y-138345419D02*
X171898809Y-137345419D01*
X171898809Y-137345419D02*
X171803571Y-137488276D01*
X171803571Y-137488276D02*
X171708333Y-137583514D01*
X171708333Y-137583514D02*
X171613095Y-137631133D01*
X126135819Y-90257333D02*
X126088200Y-90209714D01*
X126088200Y-90209714D02*
X126040580Y-90066857D01*
X126040580Y-90066857D02*
X126040580Y-89971619D01*
X126040580Y-89971619D02*
X126088200Y-89828762D01*
X126088200Y-89828762D02*
X126183438Y-89733524D01*
X126183438Y-89733524D02*
X126278676Y-89685905D01*
X126278676Y-89685905D02*
X126469152Y-89638286D01*
X126469152Y-89638286D02*
X126612009Y-89638286D01*
X126612009Y-89638286D02*
X126802485Y-89685905D01*
X126802485Y-89685905D02*
X126897723Y-89733524D01*
X126897723Y-89733524D02*
X126992961Y-89828762D01*
X126992961Y-89828762D02*
X127040580Y-89971619D01*
X127040580Y-89971619D02*
X127040580Y-90066857D01*
X127040580Y-90066857D02*
X126992961Y-90209714D01*
X126992961Y-90209714D02*
X126945342Y-90257333D01*
X126040580Y-91209714D02*
X126040580Y-90638286D01*
X126040580Y-90924000D02*
X127040580Y-90924000D01*
X127040580Y-90924000D02*
X126897723Y-90828762D01*
X126897723Y-90828762D02*
X126802485Y-90733524D01*
X126802485Y-90733524D02*
X126754866Y-90638286D01*
D11*
X146021047Y-138449009D02*
X146163904Y-138496628D01*
X146163904Y-138496628D02*
X146211523Y-138544247D01*
X146211523Y-138544247D02*
X146259142Y-138639485D01*
X146259142Y-138639485D02*
X146259142Y-138782342D01*
X146259142Y-138782342D02*
X146211523Y-138877580D01*
X146211523Y-138877580D02*
X146163904Y-138925200D01*
X146163904Y-138925200D02*
X146068666Y-138972819D01*
X146068666Y-138972819D02*
X145687714Y-138972819D01*
X145687714Y-138972819D02*
X145687714Y-137972819D01*
X145687714Y-137972819D02*
X146021047Y-137972819D01*
X146021047Y-137972819D02*
X146116285Y-138020438D01*
X146116285Y-138020438D02*
X146163904Y-138068057D01*
X146163904Y-138068057D02*
X146211523Y-138163295D01*
X146211523Y-138163295D02*
X146211523Y-138258533D01*
X146211523Y-138258533D02*
X146163904Y-138353771D01*
X146163904Y-138353771D02*
X146116285Y-138401390D01*
X146116285Y-138401390D02*
X146021047Y-138449009D01*
X146021047Y-138449009D02*
X145687714Y-138449009D01*
X146592476Y-137972819D02*
X147259142Y-137972819D01*
X147259142Y-137972819D02*
X146592476Y-138972819D01*
X146592476Y-138972819D02*
X147259142Y-138972819D01*
X148163904Y-138972819D02*
X147592476Y-138972819D01*
X147878190Y-138972819D02*
X147878190Y-137972819D01*
X147878190Y-137972819D02*
X147782952Y-138115676D01*
X147782952Y-138115676D02*
X147687714Y-138210914D01*
X147687714Y-138210914D02*
X147592476Y-138258533D01*
X150331048Y-133931866D02*
X151092953Y-133931866D01*
X150712000Y-134312819D02*
X150712000Y-133550914D01*
D10*
X130469904Y-93353580D02*
X130469904Y-92544057D01*
X130469904Y-92544057D02*
X130422285Y-92448819D01*
X130422285Y-92448819D02*
X130374666Y-92401200D01*
X130374666Y-92401200D02*
X130279428Y-92353580D01*
X130279428Y-92353580D02*
X130088952Y-92353580D01*
X130088952Y-92353580D02*
X129993714Y-92401200D01*
X129993714Y-92401200D02*
X129946095Y-92448819D01*
X129946095Y-92448819D02*
X129898476Y-92544057D01*
X129898476Y-92544057D02*
X129898476Y-93353580D01*
X129469904Y-93258342D02*
X129422285Y-93305961D01*
X129422285Y-93305961D02*
X129327047Y-93353580D01*
X129327047Y-93353580D02*
X129088952Y-93353580D01*
X129088952Y-93353580D02*
X128993714Y-93305961D01*
X128993714Y-93305961D02*
X128946095Y-93258342D01*
X128946095Y-93258342D02*
X128898476Y-93163104D01*
X128898476Y-93163104D02*
X128898476Y-93067866D01*
X128898476Y-93067866D02*
X128946095Y-92925009D01*
X128946095Y-92925009D02*
X129517523Y-92353580D01*
X129517523Y-92353580D02*
X128898476Y-92353580D01*
X164796904Y-136806580D02*
X164796904Y-135997057D01*
X164796904Y-135997057D02*
X164749285Y-135901819D01*
X164749285Y-135901819D02*
X164701666Y-135854200D01*
X164701666Y-135854200D02*
X164606428Y-135806580D01*
X164606428Y-135806580D02*
X164415952Y-135806580D01*
X164415952Y-135806580D02*
X164320714Y-135854200D01*
X164320714Y-135854200D02*
X164273095Y-135901819D01*
X164273095Y-135901819D02*
X164225476Y-135997057D01*
X164225476Y-135997057D02*
X164225476Y-136806580D01*
X163320714Y-136806580D02*
X163511190Y-136806580D01*
X163511190Y-136806580D02*
X163606428Y-136758961D01*
X163606428Y-136758961D02*
X163654047Y-136711342D01*
X163654047Y-136711342D02*
X163749285Y-136568485D01*
X163749285Y-136568485D02*
X163796904Y-136378009D01*
X163796904Y-136378009D02*
X163796904Y-135997057D01*
X163796904Y-135997057D02*
X163749285Y-135901819D01*
X163749285Y-135901819D02*
X163701666Y-135854200D01*
X163701666Y-135854200D02*
X163606428Y-135806580D01*
X163606428Y-135806580D02*
X163415952Y-135806580D01*
X163415952Y-135806580D02*
X163320714Y-135854200D01*
X163320714Y-135854200D02*
X163273095Y-135901819D01*
X163273095Y-135901819D02*
X163225476Y-135997057D01*
X163225476Y-135997057D02*
X163225476Y-136235152D01*
X163225476Y-136235152D02*
X163273095Y-136330390D01*
X163273095Y-136330390D02*
X163320714Y-136378009D01*
X163320714Y-136378009D02*
X163415952Y-136425628D01*
X163415952Y-136425628D02*
X163606428Y-136425628D01*
X163606428Y-136425628D02*
X163701666Y-136378009D01*
X163701666Y-136378009D02*
X163749285Y-136330390D01*
X163749285Y-136330390D02*
X163796904Y-136235152D01*
X136725752Y-122183523D02*
X137392419Y-122183523D01*
X136344800Y-122421618D02*
X137059085Y-122659713D01*
X137059085Y-122659713D02*
X137059085Y-122040666D01*
X164932419Y-123992808D02*
X164932419Y-123373761D01*
X164932419Y-123373761D02*
X165313371Y-123707094D01*
X165313371Y-123707094D02*
X165313371Y-123564237D01*
X165313371Y-123564237D02*
X165360990Y-123468999D01*
X165360990Y-123468999D02*
X165408609Y-123421380D01*
X165408609Y-123421380D02*
X165503847Y-123373761D01*
X165503847Y-123373761D02*
X165741942Y-123373761D01*
X165741942Y-123373761D02*
X165837180Y-123421380D01*
X165837180Y-123421380D02*
X165884800Y-123468999D01*
X165884800Y-123468999D02*
X165932419Y-123564237D01*
X165932419Y-123564237D02*
X165932419Y-123849951D01*
X165932419Y-123849951D02*
X165884800Y-123945189D01*
X165884800Y-123945189D02*
X165837180Y-123992808D01*
X165837180Y-122945189D02*
X165884800Y-122897570D01*
X165884800Y-122897570D02*
X165932419Y-122945189D01*
X165932419Y-122945189D02*
X165884800Y-122992808D01*
X165884800Y-122992808D02*
X165837180Y-122945189D01*
X165837180Y-122945189D02*
X165932419Y-122945189D01*
X165360990Y-122326142D02*
X165313371Y-122421380D01*
X165313371Y-122421380D02*
X165265752Y-122468999D01*
X165265752Y-122468999D02*
X165170514Y-122516618D01*
X165170514Y-122516618D02*
X165122895Y-122516618D01*
X165122895Y-122516618D02*
X165027657Y-122468999D01*
X165027657Y-122468999D02*
X164980038Y-122421380D01*
X164980038Y-122421380D02*
X164932419Y-122326142D01*
X164932419Y-122326142D02*
X164932419Y-122135666D01*
X164932419Y-122135666D02*
X164980038Y-122040428D01*
X164980038Y-122040428D02*
X165027657Y-121992809D01*
X165027657Y-121992809D02*
X165122895Y-121945190D01*
X165122895Y-121945190D02*
X165170514Y-121945190D01*
X165170514Y-121945190D02*
X165265752Y-121992809D01*
X165265752Y-121992809D02*
X165313371Y-122040428D01*
X165313371Y-122040428D02*
X165360990Y-122135666D01*
X165360990Y-122135666D02*
X165360990Y-122326142D01*
X165360990Y-122326142D02*
X165408609Y-122421380D01*
X165408609Y-122421380D02*
X165456228Y-122468999D01*
X165456228Y-122468999D02*
X165551466Y-122516618D01*
X165551466Y-122516618D02*
X165741942Y-122516618D01*
X165741942Y-122516618D02*
X165837180Y-122468999D01*
X165837180Y-122468999D02*
X165884800Y-122421380D01*
X165884800Y-122421380D02*
X165932419Y-122326142D01*
X165932419Y-122326142D02*
X165932419Y-122135666D01*
X165932419Y-122135666D02*
X165884800Y-122040428D01*
X165884800Y-122040428D02*
X165837180Y-121992809D01*
X165837180Y-121992809D02*
X165741942Y-121945190D01*
X165741942Y-121945190D02*
X165551466Y-121945190D01*
X165551466Y-121945190D02*
X165456228Y-121992809D01*
X165456228Y-121992809D02*
X165408609Y-122040428D01*
X165408609Y-122040428D02*
X165360990Y-122135666D01*
X165932419Y-120992809D02*
X165932419Y-121564237D01*
X165932419Y-121278523D02*
X164932419Y-121278523D01*
X164932419Y-121278523D02*
X165075276Y-121373761D01*
X165075276Y-121373761D02*
X165170514Y-121468999D01*
X165170514Y-121468999D02*
X165218133Y-121564237D01*
X161390457Y-125915819D02*
X160819029Y-125915819D01*
X161104743Y-125915819D02*
X161104743Y-124915819D01*
X161104743Y-124915819D02*
X161009505Y-125058676D01*
X161009505Y-125058676D02*
X160914267Y-125153914D01*
X160914267Y-125153914D02*
X160819029Y-125201533D01*
X161819029Y-125820580D02*
X161866648Y-125868200D01*
X161866648Y-125868200D02*
X161819029Y-125915819D01*
X161819029Y-125915819D02*
X161771410Y-125868200D01*
X161771410Y-125868200D02*
X161819029Y-125820580D01*
X161819029Y-125820580D02*
X161819029Y-125915819D01*
X162771409Y-124915819D02*
X162295219Y-124915819D01*
X162295219Y-124915819D02*
X162247600Y-125392009D01*
X162247600Y-125392009D02*
X162295219Y-125344390D01*
X162295219Y-125344390D02*
X162390457Y-125296771D01*
X162390457Y-125296771D02*
X162628552Y-125296771D01*
X162628552Y-125296771D02*
X162723790Y-125344390D01*
X162723790Y-125344390D02*
X162771409Y-125392009D01*
X162771409Y-125392009D02*
X162819028Y-125487247D01*
X162819028Y-125487247D02*
X162819028Y-125725342D01*
X162819028Y-125725342D02*
X162771409Y-125820580D01*
X162771409Y-125820580D02*
X162723790Y-125868200D01*
X162723790Y-125868200D02*
X162628552Y-125915819D01*
X162628552Y-125915819D02*
X162390457Y-125915819D01*
X162390457Y-125915819D02*
X162295219Y-125868200D01*
X162295219Y-125868200D02*
X162247600Y-125820580D01*
X163152362Y-124915819D02*
X163819028Y-124915819D01*
X163819028Y-124915819D02*
X163390457Y-125915819D01*
X164628552Y-125249152D02*
X164628552Y-125915819D01*
X164390457Y-124868200D02*
X164152362Y-125582485D01*
X164152362Y-125582485D02*
X164771409Y-125582485D01*
X165295219Y-125344390D02*
X165199981Y-125296771D01*
X165199981Y-125296771D02*
X165152362Y-125249152D01*
X165152362Y-125249152D02*
X165104743Y-125153914D01*
X165104743Y-125153914D02*
X165104743Y-125106295D01*
X165104743Y-125106295D02*
X165152362Y-125011057D01*
X165152362Y-125011057D02*
X165199981Y-124963438D01*
X165199981Y-124963438D02*
X165295219Y-124915819D01*
X165295219Y-124915819D02*
X165485695Y-124915819D01*
X165485695Y-124915819D02*
X165580933Y-124963438D01*
X165580933Y-124963438D02*
X165628552Y-125011057D01*
X165628552Y-125011057D02*
X165676171Y-125106295D01*
X165676171Y-125106295D02*
X165676171Y-125153914D01*
X165676171Y-125153914D02*
X165628552Y-125249152D01*
X165628552Y-125249152D02*
X165580933Y-125296771D01*
X165580933Y-125296771D02*
X165485695Y-125344390D01*
X165485695Y-125344390D02*
X165295219Y-125344390D01*
X165295219Y-125344390D02*
X165199981Y-125392009D01*
X165199981Y-125392009D02*
X165152362Y-125439628D01*
X165152362Y-125439628D02*
X165104743Y-125534866D01*
X165104743Y-125534866D02*
X165104743Y-125725342D01*
X165104743Y-125725342D02*
X165152362Y-125820580D01*
X165152362Y-125820580D02*
X165199981Y-125868200D01*
X165199981Y-125868200D02*
X165295219Y-125915819D01*
X165295219Y-125915819D02*
X165485695Y-125915819D01*
X165485695Y-125915819D02*
X165580933Y-125868200D01*
X165580933Y-125868200D02*
X165628552Y-125820580D01*
X165628552Y-125820580D02*
X165676171Y-125725342D01*
X165676171Y-125725342D02*
X165676171Y-125534866D01*
X165676171Y-125534866D02*
X165628552Y-125439628D01*
X165628552Y-125439628D02*
X165580933Y-125392009D01*
X165580933Y-125392009D02*
X165485695Y-125344390D01*
X166818904Y-76180580D02*
X166818904Y-75371057D01*
X166818904Y-75371057D02*
X166771285Y-75275819D01*
X166771285Y-75275819D02*
X166723666Y-75228200D01*
X166723666Y-75228200D02*
X166628428Y-75180580D01*
X166628428Y-75180580D02*
X166437952Y-75180580D01*
X166437952Y-75180580D02*
X166342714Y-75228200D01*
X166342714Y-75228200D02*
X166295095Y-75275819D01*
X166295095Y-75275819D02*
X166247476Y-75371057D01*
X166247476Y-75371057D02*
X166247476Y-76180580D01*
X165866523Y-76180580D02*
X165247476Y-76180580D01*
X165247476Y-76180580D02*
X165580809Y-75799628D01*
X165580809Y-75799628D02*
X165437952Y-75799628D01*
X165437952Y-75799628D02*
X165342714Y-75752009D01*
X165342714Y-75752009D02*
X165295095Y-75704390D01*
X165295095Y-75704390D02*
X165247476Y-75609152D01*
X165247476Y-75609152D02*
X165247476Y-75371057D01*
X165247476Y-75371057D02*
X165295095Y-75275819D01*
X165295095Y-75275819D02*
X165342714Y-75228200D01*
X165342714Y-75228200D02*
X165437952Y-75180580D01*
X165437952Y-75180580D02*
X165723666Y-75180580D01*
X165723666Y-75180580D02*
X165818904Y-75228200D01*
X165818904Y-75228200D02*
X165866523Y-75275819D01*
X161517095Y-128362419D02*
X161517095Y-129171942D01*
X161517095Y-129171942D02*
X161564714Y-129267180D01*
X161564714Y-129267180D02*
X161612333Y-129314800D01*
X161612333Y-129314800D02*
X161707571Y-129362419D01*
X161707571Y-129362419D02*
X161898047Y-129362419D01*
X161898047Y-129362419D02*
X161993285Y-129314800D01*
X161993285Y-129314800D02*
X162040904Y-129267180D01*
X162040904Y-129267180D02*
X162088523Y-129171942D01*
X162088523Y-129171942D02*
X162088523Y-128362419D01*
X162993285Y-128695752D02*
X162993285Y-129362419D01*
X162755190Y-128314800D02*
X162517095Y-129029085D01*
X162517095Y-129029085D02*
X163136142Y-129029085D01*
X159231095Y-128259419D02*
X159231095Y-129068942D01*
X159231095Y-129068942D02*
X159278714Y-129164180D01*
X159278714Y-129164180D02*
X159326333Y-129211800D01*
X159326333Y-129211800D02*
X159421571Y-129259419D01*
X159421571Y-129259419D02*
X159612047Y-129259419D01*
X159612047Y-129259419D02*
X159707285Y-129211800D01*
X159707285Y-129211800D02*
X159754904Y-129164180D01*
X159754904Y-129164180D02*
X159802523Y-129068942D01*
X159802523Y-129068942D02*
X159802523Y-128259419D01*
X160754904Y-128259419D02*
X160278714Y-128259419D01*
X160278714Y-128259419D02*
X160231095Y-128735609D01*
X160231095Y-128735609D02*
X160278714Y-128687990D01*
X160278714Y-128687990D02*
X160373952Y-128640371D01*
X160373952Y-128640371D02*
X160612047Y-128640371D01*
X160612047Y-128640371D02*
X160707285Y-128687990D01*
X160707285Y-128687990D02*
X160754904Y-128735609D01*
X160754904Y-128735609D02*
X160802523Y-128830847D01*
X160802523Y-128830847D02*
X160802523Y-129068942D01*
X160802523Y-129068942D02*
X160754904Y-129164180D01*
X160754904Y-129164180D02*
X160707285Y-129211800D01*
X160707285Y-129211800D02*
X160612047Y-129259419D01*
X160612047Y-129259419D02*
X160373952Y-129259419D01*
X160373952Y-129259419D02*
X160278714Y-129211800D01*
X160278714Y-129211800D02*
X160231095Y-129164180D01*
%TO.C,U1*%
X167311000Y-85818000D02*
X172899000Y-85818000D01*
X172899000Y-136618000D01*
X167311000Y-136618000D01*
X167311000Y-85818000D01*
%TO.C,C1*%
X159264000Y-76327000D02*
X127768000Y-76327000D01*
X127768000Y-92329000D01*
X159264000Y-92329000D01*
X159264000Y-76327000D01*
D12*
%TO.C,BZ1*%
X153002000Y-131318000D02*
G75*
G02*
X140802000Y-131318000I-6100000J0D01*
G01*
X140802000Y-131318000D02*
G75*
G02*
X153002000Y-131318000I6100000J0D01*
G01*
%TO.C,U2*%
D10*
X139360000Y-132181000D02*
X127676000Y-132181000D01*
X127676000Y-94335000D01*
X139360000Y-94335000D01*
X139360000Y-132181000D01*
%TO.C,U6*%
X164035000Y-124374000D02*
X142035000Y-124374000D01*
X142035000Y-94374000D01*
X164035000Y-94374000D01*
X164035000Y-124374000D01*
X136725752Y-122183523D02*
X137392419Y-122183523D01*
X136344800Y-122421618D02*
X137059085Y-122659713D01*
X137059085Y-122659713D02*
X137059085Y-122040666D01*
X152535000Y-120374000D02*
X137448580Y-120374000D01*
X137448580Y-124374000D02*
X152535000Y-124374000D01*
X138035000Y-120374000D02*
X138035000Y-124374000D01*
X138035000Y-120374000D02*
X138621421Y-121500504D01*
X138035000Y-120374000D02*
X137448579Y-121500504D01*
X138035000Y-124374000D02*
X137448579Y-123247496D01*
X138035000Y-124374000D02*
X138621421Y-123247496D01*
X164932419Y-123992808D02*
X164932419Y-123373761D01*
X164932419Y-123373761D02*
X165313371Y-123707094D01*
X165313371Y-123707094D02*
X165313371Y-123564237D01*
X165313371Y-123564237D02*
X165360990Y-123468999D01*
X165360990Y-123468999D02*
X165408609Y-123421380D01*
X165408609Y-123421380D02*
X165503847Y-123373761D01*
X165503847Y-123373761D02*
X165741942Y-123373761D01*
X165741942Y-123373761D02*
X165837180Y-123421380D01*
X165837180Y-123421380D02*
X165884800Y-123468999D01*
X165884800Y-123468999D02*
X165932419Y-123564237D01*
X165932419Y-123564237D02*
X165932419Y-123849951D01*
X165932419Y-123849951D02*
X165884800Y-123945189D01*
X165884800Y-123945189D02*
X165837180Y-123992808D01*
X165837180Y-122945189D02*
X165884800Y-122897570D01*
X165884800Y-122897570D02*
X165932419Y-122945189D01*
X165932419Y-122945189D02*
X165884800Y-122992808D01*
X165884800Y-122992808D02*
X165837180Y-122945189D01*
X165837180Y-122945189D02*
X165932419Y-122945189D01*
X165360990Y-122326142D02*
X165313371Y-122421380D01*
X165313371Y-122421380D02*
X165265752Y-122468999D01*
X165265752Y-122468999D02*
X165170514Y-122516618D01*
X165170514Y-122516618D02*
X165122895Y-122516618D01*
X165122895Y-122516618D02*
X165027657Y-122468999D01*
X165027657Y-122468999D02*
X164980038Y-122421380D01*
X164980038Y-122421380D02*
X164932419Y-122326142D01*
X164932419Y-122326142D02*
X164932419Y-122135666D01*
X164932419Y-122135666D02*
X164980038Y-122040428D01*
X164980038Y-122040428D02*
X165027657Y-121992809D01*
X165027657Y-121992809D02*
X165122895Y-121945190D01*
X165122895Y-121945190D02*
X165170514Y-121945190D01*
X165170514Y-121945190D02*
X165265752Y-121992809D01*
X165265752Y-121992809D02*
X165313371Y-122040428D01*
X165313371Y-122040428D02*
X165360990Y-122135666D01*
X165360990Y-122135666D02*
X165360990Y-122326142D01*
X165360990Y-122326142D02*
X165408609Y-122421380D01*
X165408609Y-122421380D02*
X165456228Y-122468999D01*
X165456228Y-122468999D02*
X165551466Y-122516618D01*
X165551466Y-122516618D02*
X165741942Y-122516618D01*
X165741942Y-122516618D02*
X165837180Y-122468999D01*
X165837180Y-122468999D02*
X165884800Y-122421380D01*
X165884800Y-122421380D02*
X165932419Y-122326142D01*
X165932419Y-122326142D02*
X165932419Y-122135666D01*
X165932419Y-122135666D02*
X165884800Y-122040428D01*
X165884800Y-122040428D02*
X165837180Y-121992809D01*
X165837180Y-121992809D02*
X165741942Y-121945190D01*
X165741942Y-121945190D02*
X165551466Y-121945190D01*
X165551466Y-121945190D02*
X165456228Y-121992809D01*
X165456228Y-121992809D02*
X165408609Y-122040428D01*
X165408609Y-122040428D02*
X165360990Y-122135666D01*
X165932419Y-120992809D02*
X165932419Y-121564237D01*
X165932419Y-121278523D02*
X164932419Y-121278523D01*
X164932419Y-121278523D02*
X165075276Y-121373761D01*
X165075276Y-121373761D02*
X165170514Y-121468999D01*
X165170514Y-121468999D02*
X165218133Y-121564237D01*
X164535000Y-124374000D02*
X167161420Y-124374000D01*
X167161420Y-120564000D02*
X166567000Y-120564000D01*
X166575000Y-124374000D02*
X166575000Y-120564000D01*
X166575000Y-124374000D02*
X165988579Y-123247496D01*
X166575000Y-124374000D02*
X167161421Y-123247496D01*
X166575000Y-120564000D02*
X167161421Y-121690504D01*
X166575000Y-120564000D02*
X165988579Y-121690504D01*
X161390457Y-125915819D02*
X160819029Y-125915819D01*
X161104743Y-125915819D02*
X161104743Y-124915819D01*
X161104743Y-124915819D02*
X161009505Y-125058676D01*
X161009505Y-125058676D02*
X160914267Y-125153914D01*
X160914267Y-125153914D02*
X160819029Y-125201533D01*
X161819029Y-125820580D02*
X161866648Y-125868200D01*
X161866648Y-125868200D02*
X161819029Y-125915819D01*
X161819029Y-125915819D02*
X161771410Y-125868200D01*
X161771410Y-125868200D02*
X161819029Y-125820580D01*
X161819029Y-125820580D02*
X161819029Y-125915819D01*
X162771409Y-124915819D02*
X162295219Y-124915819D01*
X162295219Y-124915819D02*
X162247600Y-125392009D01*
X162247600Y-125392009D02*
X162295219Y-125344390D01*
X162295219Y-125344390D02*
X162390457Y-125296771D01*
X162390457Y-125296771D02*
X162628552Y-125296771D01*
X162628552Y-125296771D02*
X162723790Y-125344390D01*
X162723790Y-125344390D02*
X162771409Y-125392009D01*
X162771409Y-125392009D02*
X162819028Y-125487247D01*
X162819028Y-125487247D02*
X162819028Y-125725342D01*
X162819028Y-125725342D02*
X162771409Y-125820580D01*
X162771409Y-125820580D02*
X162723790Y-125868200D01*
X162723790Y-125868200D02*
X162628552Y-125915819D01*
X162628552Y-125915819D02*
X162390457Y-125915819D01*
X162390457Y-125915819D02*
X162295219Y-125868200D01*
X162295219Y-125868200D02*
X162247600Y-125820580D01*
X163152362Y-124915819D02*
X163819028Y-124915819D01*
X163819028Y-124915819D02*
X163390457Y-125915819D01*
X164628552Y-125249152D02*
X164628552Y-125915819D01*
X164390457Y-124868200D02*
X164152362Y-125582485D01*
X164152362Y-125582485D02*
X164771409Y-125582485D01*
X165295219Y-125344390D02*
X165199981Y-125296771D01*
X165199981Y-125296771D02*
X165152362Y-125249152D01*
X165152362Y-125249152D02*
X165104743Y-125153914D01*
X165104743Y-125153914D02*
X165104743Y-125106295D01*
X165104743Y-125106295D02*
X165152362Y-125011057D01*
X165152362Y-125011057D02*
X165199981Y-124963438D01*
X165199981Y-124963438D02*
X165295219Y-124915819D01*
X165295219Y-124915819D02*
X165485695Y-124915819D01*
X165485695Y-124915819D02*
X165580933Y-124963438D01*
X165580933Y-124963438D02*
X165628552Y-125011057D01*
X165628552Y-125011057D02*
X165676171Y-125106295D01*
X165676171Y-125106295D02*
X165676171Y-125153914D01*
X165676171Y-125153914D02*
X165628552Y-125249152D01*
X165628552Y-125249152D02*
X165580933Y-125296771D01*
X165580933Y-125296771D02*
X165485695Y-125344390D01*
X165485695Y-125344390D02*
X165295219Y-125344390D01*
X165295219Y-125344390D02*
X165199981Y-125392009D01*
X165199981Y-125392009D02*
X165152362Y-125439628D01*
X165152362Y-125439628D02*
X165104743Y-125534866D01*
X165104743Y-125534866D02*
X165104743Y-125725342D01*
X165104743Y-125725342D02*
X165152362Y-125820580D01*
X165152362Y-125820580D02*
X165199981Y-125868200D01*
X165199981Y-125868200D02*
X165295219Y-125915819D01*
X165295219Y-125915819D02*
X165485695Y-125915819D01*
X165485695Y-125915819D02*
X165580933Y-125868200D01*
X165580933Y-125868200D02*
X165628552Y-125820580D01*
X165628552Y-125820580D02*
X165676171Y-125725342D01*
X165676171Y-125725342D02*
X165676171Y-125534866D01*
X165676171Y-125534866D02*
X165628552Y-125439628D01*
X165628552Y-125439628D02*
X165580933Y-125392009D01*
X165580933Y-125392009D02*
X165485695Y-125344390D01*
X164035000Y-124874000D02*
X164035000Y-127144820D01*
X162460200Y-127144820D02*
X162460200Y-124823200D01*
X164035000Y-126558400D02*
X162460200Y-126558400D01*
X164035000Y-126558400D02*
X162908496Y-127144821D01*
X164035000Y-126558400D02*
X162908496Y-125971979D01*
X162460200Y-126558400D02*
X163586704Y-125971979D01*
X162460200Y-126558400D02*
X163586704Y-127144821D01*
%TO.C,U3*%
X176979000Y-82242000D02*
X164025000Y-82242000D01*
X164025000Y-76654000D01*
X176979000Y-76654000D01*
X176979000Y-82242000D01*
%TO.C,U4*%
X156437000Y-125095000D02*
X164057000Y-125095000D01*
X164057000Y-127635000D01*
X156437000Y-127635000D01*
X156437000Y-125095000D01*
%TO.C,U5*%
X154913000Y-134112000D02*
X165073000Y-134112000D01*
X165073000Y-136652000D01*
X154913000Y-136652000D01*
X154913000Y-134112000D01*
%TD*%
M02*
