%TF.GenerationSoftware,KiCad,Pcbnew,9.0.5*%
%TF.CreationDate,2025-10-22T00:31:54-04:00*%
%TF.ProjectId,PiHat,50694861-742e-46b6-9963-61645f706362,rev?*%
%TF.SameCoordinates,Original*%
%TF.FileFunction,Copper,L1,Top*%
%TF.FilePolarity,Positive*%
%FSLAX46Y46*%
G04 Gerber Fmt 4.6, Leading zero omitted, Abs format (unit mm)*
G04 Created by KiCad (PCBNEW 9.0.5) date 2025-10-22 00:31:54*
%MOMM*%
%LPD*%
G01*
G04 APERTURE LIST*
%TA.AperFunction,ComponentPad*%
%ADD10O,2.000000X2.540000*%
%TD*%
%TA.AperFunction,ComponentPad*%
%ADD11R,2.000000X2.000000*%
%TD*%
%TA.AperFunction,ComponentPad*%
%ADD12C,2.500000*%
%TD*%
%TA.AperFunction,ComponentPad*%
%ADD13R,1.550000X1.700000*%
%TD*%
%TA.AperFunction,ComponentPad*%
%ADD14O,1.900000X1.700000*%
%TD*%
%TA.AperFunction,ComponentPad*%
%ADD15O,1.550000X1.700000*%
%TD*%
%TA.AperFunction,ComponentPad*%
%ADD16O,1.700000X1.700000*%
%TD*%
%TA.AperFunction,SMDPad,CuDef*%
%ADD17O,2.000000X3.000000*%
%TD*%
%TA.AperFunction,ComponentPad*%
%ADD18O,2.500000X1.700000*%
%TD*%
%TA.AperFunction,ComponentPad*%
%ADD19O,2.500000X2.000000*%
%TD*%
%TA.AperFunction,ComponentPad*%
%ADD20C,5.500000*%
%TD*%
%TA.AperFunction,ComponentPad*%
%ADD21O,1.700000X2.000000*%
%TD*%
%TA.AperFunction,ViaPad*%
%ADD22C,3.300000*%
%TD*%
%TA.AperFunction,ViaPad*%
%ADD23C,2.500000*%
%TD*%
%TA.AperFunction,ViaPad*%
%ADD24C,3.000000*%
%TD*%
%TA.AperFunction,ViaPad*%
%ADD25C,2.000000*%
%TD*%
%TA.AperFunction,Conductor*%
%ADD26C,1.000000*%
%TD*%
G04 APERTURE END LIST*
D10*
%TO.P,C1,1*%
%TO.N,+7.5V*%
X156500000Y-86500000D03*
%TO.P,C1,2*%
%TO.N,GND*%
X156500000Y-81000000D03*
%TD*%
D11*
%TO.P,BZ1,1,+*%
%TO.N,/Buzzer_GPIO*%
X150300000Y-131500000D03*
D12*
%TO.P,BZ1,2,-*%
%TO.N,GND*%
X142700000Y-131500000D03*
%TD*%
D13*
%TO.P,U5,1,3V3_power*%
%TO.N,unconnected-(U5-3V3_power-Pad1)*%
X172460000Y-87140000D03*
D14*
%TO.P,U5,2,5V_power*%
%TO.N,+5V*%
X175000000Y-87140000D03*
%TO.P,U5,3,GPIO_2*%
%TO.N,/I2C_SDA*%
X172460000Y-89680000D03*
D15*
%TO.P,U5,4,5V_power*%
%TO.N,+5V*%
X175000000Y-89680000D03*
D14*
%TO.P,U5,5,GPIO_3*%
%TO.N,/I2C_SCL*%
X172460000Y-92220000D03*
D15*
%TO.P,U5,6,Ground*%
%TO.N,GND*%
X175000000Y-92220000D03*
D16*
%TO.P,U5,7,GPIO_4*%
%TO.N,unconnected-(U5-GPIO_4-Pad7)*%
X172460000Y-94760000D03*
%TO.P,U5,8,GPIO_14*%
%TO.N,unconnected-(U5-GPIO_14-Pad8)*%
X175000000Y-94760000D03*
%TO.P,U5,9,Ground*%
%TO.N,GND*%
X172460000Y-97300000D03*
%TO.P,U5,10,GPIO_15*%
%TO.N,unconnected-(U5-GPIO_15-Pad10)*%
X175000000Y-97300000D03*
D15*
%TO.P,U5,11,GPIO_17*%
%TO.N,unconnected-(U5-GPIO_17-Pad11)*%
X172460000Y-99840000D03*
D14*
%TO.P,U5,12,GPIO_18*%
%TO.N,/PWM*%
X175000000Y-99840000D03*
D16*
%TO.P,U5,13,GPIO_27*%
%TO.N,unconnected-(U5-GPIO_27-Pad13)*%
X172460000Y-102380000D03*
%TO.P,U5,14,Ground*%
%TO.N,GND*%
X175000000Y-102380000D03*
%TO.P,U5,15,GPIO_22*%
%TO.N,unconnected-(U5-GPIO_22-Pad15)*%
X172460000Y-104920000D03*
%TO.P,U5,16,GPIO_23*%
%TO.N,unconnected-(U5-GPIO_23-Pad16)*%
X175000000Y-104920000D03*
%TO.P,U5,17,3V3_power*%
%TO.N,unconnected-(U5-3V3_power-Pad17)*%
X172460000Y-107460000D03*
%TO.P,U5,18,GPIO_24*%
%TO.N,unconnected-(U5-GPIO_24-Pad18)*%
X175000000Y-107460000D03*
D15*
%TO.P,U5,19,GPIO_10*%
%TO.N,unconnected-(U5-GPIO_10-Pad19)*%
X172460000Y-110000000D03*
D14*
%TO.P,U5,20,Ground*%
%TO.N,GND*%
X175000000Y-110000000D03*
D16*
%TO.P,U5,21,GPIO_9*%
%TO.N,unconnected-(U5-GPIO_9-Pad21)*%
X172460000Y-112540000D03*
%TO.P,U5,22,GPIO_25*%
%TO.N,unconnected-(U5-GPIO_25-Pad22)*%
X175000000Y-112540000D03*
%TO.P,U5,23,GPIO_11*%
%TO.N,unconnected-(U5-GPIO_11-Pad23)*%
X172460000Y-115080000D03*
%TO.P,U5,24,GPIO_8*%
%TO.N,unconnected-(U5-GPIO_8-Pad24)*%
X175000000Y-115080000D03*
%TO.P,U5,25,Ground*%
%TO.N,GND*%
X172460000Y-117620000D03*
%TO.P,U5,26,GPIO_7*%
%TO.N,unconnected-(U5-GPIO_7-Pad26)*%
X175000000Y-117620000D03*
%TO.P,U5,27,GPIO_0*%
%TO.N,unconnected-(U5-GPIO_0-Pad27)*%
X172460000Y-120160000D03*
%TO.P,U5,28,GPIO_1*%
%TO.N,unconnected-(U5-GPIO_1-Pad28)*%
X175000000Y-120160000D03*
%TO.P,U5,29,GPIO_5*%
%TO.N,/Buzzer_GPIO*%
X172460000Y-122700000D03*
%TO.P,U5,30,Ground*%
%TO.N,GND*%
X175000000Y-122700000D03*
D14*
%TO.P,U5,31,GPIO_6*%
%TO.N,/ENCODER_B*%
X172460000Y-125240000D03*
D15*
%TO.P,U5,32,GPIO_12*%
%TO.N,unconnected-(U5-GPIO_12-Pad32)*%
X175000000Y-125240000D03*
%TO.P,U5,33,GPIO_13*%
%TO.N,unconnected-(U5-GPIO_13-Pad33)*%
X172460000Y-127780000D03*
D14*
%TO.P,U5,34,Ground*%
%TO.N,GND*%
X175000000Y-127780000D03*
D16*
%TO.P,U5,35,GPIO_19*%
%TO.N,unconnected-(U5-GPIO_19-Pad35)*%
X172460000Y-130320000D03*
%TO.P,U5,36,GPIO_16*%
%TO.N,unconnected-(U5-GPIO_16-Pad36)*%
X175000000Y-130320000D03*
D14*
%TO.P,U5,37,GPIO_26*%
%TO.N,/ENCODER_A*%
X172460000Y-132860000D03*
D15*
%TO.P,U5,38,GPIO_20*%
%TO.N,unconnected-(U5-GPIO_20-Pad38)*%
X175000000Y-132860000D03*
D14*
%TO.P,U5,39,Ground*%
%TO.N,GND*%
X172460000Y-135400000D03*
D15*
%TO.P,U5,40,GPIO_21*%
%TO.N,unconnected-(U5-GPIO_21-Pad40)*%
X175000000Y-135400000D03*
%TD*%
D17*
%TO.P,U6,1,VIN*%
%TO.N,+7.5V*%
X138330000Y-123255000D03*
%TO.P,U6,2,VOUT*%
%TO.N,+5V*%
X138330000Y-96745000D03*
%TO.P,U6,3,GND*%
%TO.N,GND*%
X127670000Y-123255000D03*
%TO.P,U6,4,GND*%
X127670000Y-96745000D03*
%TD*%
D18*
%TO.P,U1,1,VCC*%
%TO.N,+5V*%
X162460200Y-120513200D03*
%TO.P,U1,2,GND*%
%TO.N,GND*%
X162460200Y-117973200D03*
%TO.P,U1,3,SCL*%
%TO.N,/I2C_SCL*%
X162460200Y-115433200D03*
%TO.P,U1,4,SDA*%
%TO.N,/I2C_SDA*%
X162460200Y-112893200D03*
D19*
%TO.P,U1,5,Vin*%
%TO.N,+7.5V*%
X156535000Y-120374000D03*
%TO.P,U1,6,GND*%
%TO.N,GND*%
X153035000Y-120374000D03*
%TO.P,U1,7,Vout*%
%TO.N,+7.5V*%
X149535000Y-120374000D03*
%TD*%
D20*
%TO.P,U2,1,Vin*%
%TO.N,+7.5V*%
X173875000Y-79448000D03*
%TO.P,U2,2,Ground*%
%TO.N,GND*%
X166875000Y-79448000D03*
%TD*%
D16*
%TO.P,U3,1,GND*%
%TO.N,GND*%
X157707000Y-126365000D03*
D21*
%TO.P,U3,2,Vin*%
%TO.N,+7.5V*%
X160247000Y-126365000D03*
%TO.P,U3,3,Signal*%
%TO.N,/PWM*%
X162787000Y-126365000D03*
%TD*%
%TO.P,U4,1,GND*%
%TO.N,GND*%
X156183000Y-135382000D03*
%TO.P,U4,2,+*%
%TO.N,+5V*%
X158723000Y-135382000D03*
%TO.P,U4,3,DT*%
%TO.N,/ENCODER_B*%
X161263000Y-135382000D03*
%TO.P,U4,4,CLK*%
%TO.N,/ENCODER_A*%
X163803000Y-135382000D03*
%TD*%
D22*
%TO.N,GND*%
X132220000Y-88060000D03*
D23*
%TO.N,+7.5V*%
X152801000Y-126639000D03*
%TO.N,+5V*%
X133400000Y-128490000D03*
D24*
X168000000Y-119000000D03*
X132060000Y-92670000D03*
D25*
X158730000Y-132610000D03*
%TO.N,/Buzzer_GPIO*%
X156020000Y-130760000D03*
%TO.N,/I2C_SCL*%
X169000000Y-111500000D03*
%TO.N,/I2C_SDA*%
X166210000Y-107400000D03*
%TO.N,/PWM*%
X178043000Y-99850000D03*
%TO.N,/ENCODER_A*%
X166930000Y-133970000D03*
%TO.N,/ENCODER_B*%
X164990000Y-131640000D03*
%TD*%
D26*
%TO.N,GND*%
X178050000Y-126003941D02*
X178050000Y-135940000D01*
X176720000Y-110000000D02*
X178010000Y-111290000D01*
X175000000Y-110000000D02*
X176720000Y-110000000D01*
X172460000Y-137795000D02*
X172460000Y-135400000D01*
X127670000Y-128610000D02*
X136855000Y-137795000D01*
X178010000Y-125963941D02*
X178010000Y-127690000D01*
X130900000Y-88060000D02*
X127670000Y-91290000D01*
X178010000Y-120883941D02*
X178010000Y-125963941D01*
X170065000Y-137795000D02*
X172460000Y-137795000D01*
X136855000Y-137795000D02*
X170065000Y-137795000D01*
X127670000Y-123255000D02*
X127670000Y-128610000D01*
X132220000Y-88060000D02*
X130900000Y-88060000D01*
X178100000Y-127780000D02*
X175000000Y-127780000D01*
X178050000Y-135940000D02*
X176195000Y-137795000D01*
X175031689Y-122700000D02*
X175221689Y-122890000D01*
X127670000Y-123255000D02*
X127670000Y-96745000D01*
X175221689Y-122890000D02*
X178010000Y-122890000D01*
X178010000Y-125963941D02*
X178050000Y-126003941D01*
X178010000Y-111290000D02*
X178010000Y-120883941D01*
X178010000Y-122890000D02*
X178010000Y-120883941D01*
X176195000Y-137795000D02*
X170065000Y-137795000D01*
X175000000Y-122700000D02*
X175031689Y-122700000D01*
X127670000Y-91290000D02*
X127670000Y-96745000D01*
%TO.N,+7.5V*%
X139909000Y-126639000D02*
X138330000Y-125060000D01*
X138330000Y-125060000D02*
X138330000Y-123255000D01*
X152801000Y-126639000D02*
X139909000Y-126639000D01*
%TO.N,+5V*%
X173380000Y-84000000D02*
X175080000Y-85700000D01*
X146220000Y-94620000D02*
X146220000Y-96745000D01*
X158192252Y-133147748D02*
X158730000Y-132610000D01*
X144180000Y-92580000D02*
X146220000Y-94620000D01*
X154232252Y-133147748D02*
X158192252Y-133147748D01*
X148000000Y-96745000D02*
X152755000Y-96745000D01*
X168000000Y-114140000D02*
X168000000Y-119000000D01*
X152020000Y-135360000D02*
X154232252Y-133147748D01*
X148000000Y-96745000D02*
X150605000Y-96745000D01*
X175000000Y-89680000D02*
X175000000Y-87140000D01*
X141000000Y-96745000D02*
X146220000Y-96745000D01*
X132150000Y-92580000D02*
X144180000Y-92580000D01*
X146220000Y-96745000D02*
X148000000Y-96745000D01*
X175080000Y-87060000D02*
X175000000Y-87140000D01*
X175080000Y-85700000D02*
X175080000Y-87060000D01*
X140270000Y-135360000D02*
X152020000Y-135360000D01*
X138330000Y-96745000D02*
X141000000Y-96745000D01*
X132060000Y-92670000D02*
X132150000Y-92580000D01*
X152755000Y-96745000D02*
X165500000Y-84000000D01*
X150605000Y-96745000D02*
X168000000Y-114140000D01*
X133400000Y-128490000D02*
X140270000Y-135360000D01*
X165500000Y-84000000D02*
X173380000Y-84000000D01*
%TO.N,/Buzzer_GPIO*%
X164300000Y-128700000D02*
X170300000Y-122700000D01*
X156580000Y-130200000D02*
X162790000Y-130200000D01*
X164290000Y-128700000D02*
X164300000Y-128700000D01*
X162790000Y-130200000D02*
X164290000Y-128700000D01*
X156020000Y-130760000D02*
X156580000Y-130200000D01*
X170300000Y-122700000D02*
X172460000Y-122700000D01*
%TO.N,/I2C_SCL*%
X170660000Y-92230000D02*
X172450000Y-92230000D01*
X172450000Y-92230000D02*
X172460000Y-92220000D01*
X169000000Y-111500000D02*
X169000000Y-93890000D01*
X169000000Y-93890000D02*
X170660000Y-92230000D01*
X172240000Y-92440000D02*
X172460000Y-92220000D01*
%TO.N,/I2C_SDA*%
X166210000Y-92500000D02*
X169082000Y-89628000D01*
X166210000Y-107400000D02*
X166210000Y-92500000D01*
X169082000Y-89628000D02*
X172408000Y-89628000D01*
X172408000Y-89628000D02*
X172460000Y-89680000D01*
%TO.N,/PWM*%
X175160000Y-100000000D02*
X175000000Y-99840000D01*
X176643000Y-99850000D02*
X176633000Y-99840000D01*
X176633000Y-99840000D02*
X175000000Y-99840000D01*
X178043000Y-99850000D02*
X176643000Y-99850000D01*
%TO.N,/ENCODER_A*%
X172380000Y-132940000D02*
X172460000Y-132860000D01*
X166930000Y-133970000D02*
X167960000Y-132940000D01*
X167960000Y-132940000D02*
X172380000Y-132940000D01*
%TO.N,/ENCODER_B*%
X164990000Y-131640000D02*
X164990000Y-131000000D01*
X170750000Y-125240000D02*
X172460000Y-125240000D01*
X164990000Y-131000000D02*
X170750000Y-125240000D01*
%TD*%
%TA.AperFunction,Conductor*%
%TO.N,GND*%
G36*
X177099396Y-109686030D02*
G01*
X177106420Y-109691583D01*
X177107461Y-109700478D01*
X177104477Y-109705560D01*
X176413240Y-110396797D01*
X176409121Y-110399462D01*
X175277368Y-110829283D01*
X175268417Y-110829016D01*
X175262276Y-110822499D01*
X175262077Y-110821929D01*
X175000431Y-110002855D01*
X175000433Y-109995729D01*
X175262379Y-109177107D01*
X175268163Y-109170274D01*
X175276711Y-109169418D01*
X177099396Y-109686030D01*
G37*
%TD.AperFunction*%
%TD*%
%TA.AperFunction,Conductor*%
%TO.N,GND*%
G36*
X172464619Y-135401004D02*
G01*
X173300789Y-135763820D01*
X173307015Y-135770257D01*
X173307448Y-135777526D01*
X172962293Y-137091273D01*
X172956876Y-137098404D01*
X172950977Y-137100000D01*
X171969023Y-137100000D01*
X171960750Y-137096573D01*
X171957707Y-137091273D01*
X171612551Y-135777526D01*
X171613763Y-135768654D01*
X171619208Y-135763821D01*
X172455344Y-135401019D01*
X172464296Y-135400870D01*
X172464619Y-135401004D01*
G37*
%TD.AperFunction*%
%TD*%
%TA.AperFunction,Conductor*%
%TO.N,GND*%
G36*
X130641377Y-87656156D02*
G01*
X132206016Y-88055543D01*
X132213184Y-88060910D01*
X132214459Y-88069774D01*
X132213355Y-88072553D01*
X131430539Y-89484606D01*
X131423530Y-89490180D01*
X131419553Y-89490609D01*
X130256205Y-89415585D01*
X130248685Y-89412182D01*
X129553114Y-88716611D01*
X129549687Y-88708338D01*
X129553114Y-88700065D01*
X129553257Y-88699924D01*
X130630354Y-87659078D01*
X130638683Y-87655795D01*
X130641377Y-87656156D01*
G37*
%TD.AperFunction*%
%TD*%
%TA.AperFunction,Conductor*%
%TO.N,GND*%
G36*
X127676772Y-123258806D02*
G01*
X128644140Y-123945374D01*
X128648903Y-123952957D01*
X128648666Y-123957957D01*
X128172331Y-125727127D01*
X128166871Y-125734225D01*
X128161033Y-125735785D01*
X127178967Y-125735785D01*
X127170694Y-125732358D01*
X127167669Y-125727127D01*
X126691333Y-123957957D01*
X126692491Y-123949077D01*
X126695857Y-123945375D01*
X127663228Y-123258805D01*
X127671958Y-123256812D01*
X127676772Y-123258806D01*
G37*
%TD.AperFunction*%
%TD*%
%TA.AperFunction,Conductor*%
%TO.N,GND*%
G36*
X176774479Y-127277980D02*
G01*
X176781823Y-127283103D01*
X176783667Y-127289407D01*
X176783667Y-128270592D01*
X176780240Y-128278865D01*
X176774479Y-128282019D01*
X175276234Y-128611379D01*
X175267418Y-128609808D01*
X175262579Y-128603519D01*
X175156021Y-128270592D01*
X175000141Y-127783564D01*
X175000141Y-127776435D01*
X175262579Y-126956479D01*
X175268365Y-126949646D01*
X175276231Y-126948620D01*
X176774479Y-127277980D01*
G37*
%TD.AperFunction*%
%TD*%
%TA.AperFunction,Conductor*%
%TO.N,GND*%
G36*
X128169306Y-120777642D02*
G01*
X128172331Y-120782873D01*
X128648666Y-122552042D01*
X128647508Y-122560922D01*
X128644140Y-122564625D01*
X127676772Y-123251193D01*
X127668042Y-123253187D01*
X127663228Y-123251193D01*
X126695859Y-122564625D01*
X126691096Y-122557042D01*
X126691333Y-122552042D01*
X127167669Y-120782873D01*
X127173129Y-120775775D01*
X127178967Y-120774215D01*
X128161033Y-120774215D01*
X128169306Y-120777642D01*
G37*
%TD.AperFunction*%
%TD*%
%TA.AperFunction,Conductor*%
%TO.N,GND*%
G36*
X127676772Y-96748806D02*
G01*
X128644140Y-97435374D01*
X128648903Y-97442957D01*
X128648666Y-97447957D01*
X128172331Y-99217127D01*
X128166871Y-99224225D01*
X128161033Y-99225785D01*
X127178967Y-99225785D01*
X127170694Y-99222358D01*
X127167669Y-99217127D01*
X126691333Y-97447957D01*
X126692491Y-97439077D01*
X126695857Y-97435375D01*
X127663228Y-96748805D01*
X127671958Y-96746812D01*
X127676772Y-96748806D01*
G37*
%TD.AperFunction*%
%TD*%
%TA.AperFunction,Conductor*%
%TO.N,GND*%
G36*
X175178494Y-121870732D02*
G01*
X176665792Y-122387269D01*
X176672483Y-122393220D01*
X176673654Y-122398321D01*
X176673654Y-123379362D01*
X176670227Y-123387635D01*
X176663064Y-123391009D01*
X175176338Y-123532665D01*
X175167777Y-123530039D01*
X175163755Y-123523314D01*
X175136604Y-123387635D01*
X174999459Y-122702293D01*
X174999459Y-122697704D01*
X175163194Y-121879489D01*
X175168177Y-121872051D01*
X175176962Y-121870314D01*
X175178494Y-121870732D01*
G37*
%TD.AperFunction*%
%TD*%
%TA.AperFunction,Conductor*%
%TO.N,GND*%
G36*
X128169306Y-94267642D02*
G01*
X128172331Y-94272873D01*
X128648666Y-96042042D01*
X128647508Y-96050922D01*
X128644140Y-96054625D01*
X127676772Y-96741193D01*
X127668042Y-96743187D01*
X127663228Y-96741193D01*
X126695859Y-96054625D01*
X126691096Y-96047042D01*
X126691333Y-96042042D01*
X127167669Y-94272873D01*
X127173129Y-94265775D01*
X127178967Y-94264215D01*
X128161033Y-94264215D01*
X128169306Y-94267642D01*
G37*
%TD.AperFunction*%
%TD*%
%TA.AperFunction,Conductor*%
%TO.N,+7.5V*%
G36*
X138338743Y-123260992D02*
G01*
X139305099Y-123946059D01*
X139309866Y-123953639D01*
X139309947Y-123957010D01*
X139161890Y-125180287D01*
X139158548Y-125187154D01*
X138464936Y-125880766D01*
X138456663Y-125884193D01*
X138448390Y-125880766D01*
X138446607Y-125878474D01*
X138035453Y-125187154D01*
X137540920Y-124355639D01*
X137539637Y-124346777D01*
X137541497Y-124342801D01*
X138322501Y-123263677D01*
X138330126Y-123258985D01*
X138338743Y-123260992D01*
G37*
%TD.AperFunction*%
%TD*%
%TA.AperFunction,Conductor*%
%TO.N,+7.5V*%
G36*
X152055349Y-125642308D02*
G01*
X152059503Y-125645775D01*
X152796763Y-126631995D01*
X152798972Y-126640673D01*
X152796763Y-126646005D01*
X152059503Y-127632224D01*
X152051805Y-127636799D01*
X152046416Y-127636313D01*
X150569678Y-127141674D01*
X150562922Y-127135797D01*
X150561694Y-127130580D01*
X150561694Y-126147419D01*
X150565121Y-126139146D01*
X150569675Y-126136326D01*
X152046418Y-125641686D01*
X152055349Y-125642308D01*
G37*
%TD.AperFunction*%
%TD*%
%TA.AperFunction,Conductor*%
%TO.N,+5V*%
G36*
X158180938Y-131788253D02*
G01*
X158180974Y-131788306D01*
X158729700Y-132608058D01*
X158731454Y-132612295D01*
X158922402Y-133577206D01*
X158920647Y-133585987D01*
X158913196Y-133590954D01*
X158911253Y-133591172D01*
X156903176Y-133647411D01*
X156894810Y-133644218D01*
X156891153Y-133636044D01*
X156891148Y-133635716D01*
X156891148Y-132653954D01*
X156894575Y-132645681D01*
X156896287Y-132644267D01*
X158164690Y-131785126D01*
X158173461Y-131783325D01*
X158180938Y-131788253D01*
G37*
%TD.AperFunction*%
%TD*%
%TA.AperFunction,Conductor*%
%TO.N,+5V*%
G36*
X168500060Y-116516260D02*
G01*
X168502791Y-116520558D01*
X168997610Y-117890212D01*
X168997198Y-117899157D01*
X168995278Y-117902041D01*
X168008672Y-118991424D01*
X168000579Y-118995256D01*
X167992146Y-118992242D01*
X167991328Y-118991424D01*
X167004721Y-117902041D01*
X167001707Y-117893608D01*
X167002387Y-117890219D01*
X167497209Y-116520557D01*
X167503243Y-116513941D01*
X167508213Y-116512833D01*
X168491787Y-116512833D01*
X168500060Y-116516260D01*
G37*
%TD.AperFunction*%
%TD*%
%TA.AperFunction,Conductor*%
%TO.N,+5V*%
G36*
X133130674Y-91632931D02*
G01*
X134538989Y-92077418D01*
X134545847Y-92083176D01*
X134547167Y-92088575D01*
X134547167Y-93072143D01*
X134543740Y-93080416D01*
X134539895Y-93082973D01*
X133210463Y-93626568D01*
X133201508Y-93626527D01*
X133198521Y-93624706D01*
X132068915Y-92678307D01*
X132064774Y-92670368D01*
X132067461Y-92661825D01*
X132068243Y-92660980D01*
X133118983Y-91635714D01*
X133127298Y-91632390D01*
X133130674Y-91632931D01*
G37*
%TD.AperFunction*%
%TD*%
%TA.AperFunction,Conductor*%
%TO.N,+5V*%
G36*
X139192426Y-95748464D02*
G01*
X140322981Y-96241936D01*
X140329192Y-96248385D01*
X140330000Y-96252658D01*
X140330000Y-97237341D01*
X140326573Y-97245614D01*
X140322980Y-97248064D01*
X139192427Y-97741534D01*
X139183474Y-97741703D01*
X139178856Y-97738417D01*
X138757269Y-97245614D01*
X138335505Y-96752604D01*
X138332732Y-96744092D01*
X138335505Y-96737395D01*
X139178858Y-95751580D01*
X139186839Y-95747523D01*
X139192426Y-95748464D01*
G37*
%TD.AperFunction*%
%TD*%
%TA.AperFunction,Conductor*%
%TO.N,+5V*%
G36*
X134635310Y-128314209D02*
G01*
X134638777Y-128318363D01*
X135333227Y-129712338D01*
X135333849Y-129721271D01*
X135331028Y-129725828D01*
X134635828Y-130421028D01*
X134627555Y-130424455D01*
X134622338Y-130423227D01*
X133228363Y-129728777D01*
X133222486Y-129722021D01*
X133222000Y-129716634D01*
X133398042Y-128497947D01*
X133402617Y-128490251D01*
X133407946Y-128488042D01*
X134626633Y-128312000D01*
X134635310Y-128314209D01*
G37*
%TD.AperFunction*%
%TD*%
%TA.AperFunction,Conductor*%
%TO.N,/Buzzer_GPIO*%
G36*
X157843283Y-129703576D02*
G01*
X157847031Y-129711709D01*
X157847040Y-129712167D01*
X157847040Y-130693913D01*
X157843613Y-130702186D01*
X157842057Y-130703493D01*
X156585359Y-131584606D01*
X156576617Y-131586550D01*
X156569062Y-131581743D01*
X156568919Y-131581534D01*
X156020299Y-130761941D01*
X156018546Y-130757706D01*
X155827566Y-129792638D01*
X155829321Y-129783860D01*
X155836772Y-129778893D01*
X155838581Y-129778679D01*
X157834882Y-129700476D01*
X157843283Y-129703576D01*
G37*
%TD.AperFunction*%
%TD*%
%TA.AperFunction,Conductor*%
%TO.N,/Buzzer_GPIO*%
G36*
X172291343Y-121870464D02*
G01*
X172296466Y-121877808D01*
X172296512Y-121878024D01*
X172460540Y-122697704D01*
X172460540Y-122702296D01*
X172296512Y-123521975D01*
X172291528Y-123529415D01*
X172282743Y-123531152D01*
X172282527Y-123531106D01*
X170785521Y-123202019D01*
X170778177Y-123196896D01*
X170776333Y-123190592D01*
X170776333Y-122209407D01*
X170779760Y-122201134D01*
X170785520Y-122197980D01*
X172282527Y-121868893D01*
X172291343Y-121870464D01*
G37*
%TD.AperFunction*%
%TD*%
%TA.AperFunction,Conductor*%
%TO.N,/I2C_SCL*%
G36*
X172192540Y-91390215D02*
G01*
X172197441Y-91396544D01*
X172459858Y-92216433D01*
X172459858Y-92223567D01*
X172197400Y-93043582D01*
X172191614Y-93050416D01*
X172183817Y-93051458D01*
X170685593Y-92731974D01*
X170678216Y-92726897D01*
X170676333Y-92720531D01*
X170676333Y-91739346D01*
X170679760Y-91731073D01*
X170685446Y-91727936D01*
X172183716Y-91388700D01*
X172192540Y-91390215D01*
G37*
%TD.AperFunction*%
%TD*%
%TA.AperFunction,Conductor*%
%TO.N,/I2C_SCL*%
G36*
X169499306Y-109522642D02*
G01*
X169502331Y-109527873D01*
X169977536Y-111292844D01*
X169976378Y-111301724D01*
X169969280Y-111307184D01*
X169968532Y-111307359D01*
X169002294Y-111500541D01*
X168997706Y-111500541D01*
X168031467Y-111307359D01*
X168024026Y-111302377D01*
X168022288Y-111293592D01*
X168022458Y-111292863D01*
X168497669Y-109527873D01*
X168503129Y-109520775D01*
X168508967Y-109519215D01*
X169491033Y-109519215D01*
X169499306Y-109522642D01*
G37*
%TD.AperFunction*%
%TD*%
%TA.AperFunction,Conductor*%
%TO.N,/I2C_SDA*%
G36*
X166709306Y-105422642D02*
G01*
X166712331Y-105427873D01*
X167187536Y-107192844D01*
X167186378Y-107201724D01*
X167179280Y-107207184D01*
X167178532Y-107207359D01*
X166212294Y-107400541D01*
X166207706Y-107400541D01*
X165241467Y-107207359D01*
X165234026Y-107202377D01*
X165232288Y-107193592D01*
X165232458Y-107192863D01*
X165707669Y-105427873D01*
X165713129Y-105420775D01*
X165718967Y-105419215D01*
X166701033Y-105419215D01*
X166709306Y-105422642D01*
G37*
%TD.AperFunction*%
%TD*%
%TA.AperFunction,Conductor*%
%TO.N,/I2C_SDA*%
G36*
X172192797Y-88850073D02*
G01*
X172197315Y-88856150D01*
X172459858Y-89676433D01*
X172459858Y-89683567D01*
X172197528Y-90503183D01*
X172191742Y-90510017D01*
X172183504Y-90510956D01*
X170685152Y-90130240D01*
X170677977Y-90124881D01*
X170676333Y-90118900D01*
X170676333Y-89137729D01*
X170679760Y-89129456D01*
X170685898Y-89126225D01*
X172184039Y-88848213D01*
X172192797Y-88850073D01*
G37*
%TD.AperFunction*%
%TD*%
%TA.AperFunction,Conductor*%
%TO.N,/PWM*%
G36*
X176977371Y-99491015D02*
G01*
X176984396Y-99496565D01*
X176985439Y-99505459D01*
X176982455Y-99510544D01*
X176290863Y-100202136D01*
X176287640Y-100204417D01*
X175580564Y-100542763D01*
X175571622Y-100543243D01*
X175566423Y-100539573D01*
X175003268Y-99844202D01*
X175000725Y-99835618D01*
X175001216Y-99833282D01*
X175262380Y-99017104D01*
X175268164Y-99010271D01*
X175276710Y-99009415D01*
X176977371Y-99491015D01*
G37*
%TD.AperFunction*%
%TD*%
%TA.AperFunction,Conductor*%
%TO.N,/ENCODER_A*%
G36*
X172192250Y-132030408D02*
G01*
X172197586Y-132036998D01*
X172459858Y-132856433D01*
X172459858Y-132863567D01*
X172197259Y-133684025D01*
X172191473Y-133690859D01*
X172184187Y-133691998D01*
X170686104Y-133441632D01*
X170678509Y-133436888D01*
X170676333Y-133430092D01*
X170676333Y-132448937D01*
X170679760Y-132440664D01*
X170684954Y-132437650D01*
X172183369Y-132029277D01*
X172192250Y-132030408D01*
G37*
%TD.AperFunction*%
%TD*%
%TA.AperFunction,Conductor*%
%TO.N,/ENCODER_B*%
G36*
X172192154Y-124410479D02*
G01*
X172197634Y-124417151D01*
X172459566Y-125235729D01*
X172459568Y-125242855D01*
X172197912Y-126061959D01*
X172192130Y-126068797D01*
X172183207Y-126069544D01*
X172182672Y-126069359D01*
X171550846Y-125832696D01*
X171053836Y-125646532D01*
X171049667Y-125643848D01*
X170358387Y-124952568D01*
X170354960Y-124944295D01*
X170358387Y-124936022D01*
X170363421Y-124933052D01*
X172183258Y-124409473D01*
X172192154Y-124410479D01*
G37*
%TD.AperFunction*%
%TD*%
%TA.AperFunction,Conductor*%
%TO.N,/ENCODER_B*%
G36*
X165649800Y-129649363D02*
G01*
X166344066Y-130343629D01*
X166347493Y-130351902D01*
X166347132Y-130354785D01*
X165973517Y-131824341D01*
X165968158Y-131831515D01*
X165959905Y-131832935D01*
X164994060Y-131641651D01*
X164986610Y-131636682D01*
X164986598Y-131636665D01*
X164439843Y-130816648D01*
X164438105Y-130807863D01*
X164441443Y-130801748D01*
X165633394Y-129649224D01*
X165641724Y-129645938D01*
X165649800Y-129649363D01*
G37*
%TD.AperFunction*%
%TD*%
M02*
